<?xml version="1.0" encoding="utf-8"?>
<!-- Generator: Adobe Illustrator 16.0.0, SVG Export Plug-In . SVG Version: 6.00 Build 0)  -->
<!DOCTYPE svg PUBLIC "-//W3C//DTD SVG 1.1//EN" "http://www.w3.org/Graphics/SVG/1.1/DTD/svg11.dtd">
<svg version="1.1" id="Layer_1" xmlns="http://www.w3.org/2000/svg" xmlns:xlink="http://www.w3.org/1999/xlink" x="0px" y="0px"
	 width="200px" height="200px" viewBox="0 0 200 200" enable-background="new 0 0 200 200" xml:space="preserve">
<g>
	<defs>
		<rect id="SVGID_1_" x="18.285" y="38.125" width="240.944" height="141.733"/>
	</defs>
	<clipPath id="SVGID_2_">
		<use xlink:href="#SVGID_1_"  overflow="visible"/>
	</clipPath>
	<g clip-path="url(#SVGID_2_)">
		<linearGradient id="SVGID_3_" gradientUnits="userSpaceOnUse" x1="16.1909" y1="89.3823" x2="57.6655" y2="89.3823">
			<stop  offset="0" style="stop-color:#D1C5C4"/>
			<stop  offset="0.1803" style="stop-color:#D7CCCB"/>
			<stop  offset="0.4174" style="stop-color:#E7E2E0"/>
			<stop  offset="0.5112" style="stop-color:#EFEDEB"/>
			<stop  offset="0.6302" style="stop-color:#CDC9C9"/>
			<stop  offset="0.8785" style="stop-color:#837C7E"/>
			<stop  offset="1" style="stop-color:#615A5D"/>
		</linearGradient>
		<path fill="url(#SVGID_3_)" d="M57.666,89.308c0,13.56-3.566,25.438-10.701,35.634c-5.055,7.227-11.697,13.363-19.922,18.41
			c-5.848,3.563-9.465,5.344-10.852,5.344V30.069c1.387,0,4.955,1.733,10.703,5.196c8.225,4.95,14.865,11.038,19.92,18.261
			C54.046,63.821,57.666,75.748,57.666,89.308z M45.328,90.125c0-10.306-2.824-19.82-8.473-28.542
			c-1.885-2.873-4.709-6.192-8.475-9.96v76.11c3.766-3.566,6.59-6.738,8.475-9.514C42.503,109.799,45.328,100.434,45.328,90.125z"/>
		<linearGradient id="SVGID_4_" gradientUnits="userSpaceOnUse" x1="56.0288" y1="90.4971" x2="108.0586" y2="90.4971">
			<stop  offset="0" style="stop-color:#D1C5C4"/>
			<stop  offset="0.1803" style="stop-color:#D7CCCB"/>
			<stop  offset="0.4174" style="stop-color:#E7E2E0"/>
			<stop  offset="0.5112" style="stop-color:#EFEDEB"/>
			<stop  offset="0.6302" style="stop-color:#CDC9C9"/>
			<stop  offset="0.8785" style="stop-color:#837C7E"/>
			<stop  offset="1" style="stop-color:#615A5D"/>
		</linearGradient>
		<path fill="url(#SVGID_4_)" d="M108.059,122.979H85.314v23.041H73.421v-23.041H63.166l-7.137-11.447h17.393V34.975h34.637v12.041
			H85.314v64.516h22.745V122.979z"/>
		<linearGradient id="SVGID_5_" gradientUnits="userSpaceOnUse" x1="120.0977" y1="87.5801" x2="158.4492" y2="87.5801">
			<stop  offset="0" style="stop-color:#D1C5C4"/>
			<stop  offset="0.1803" style="stop-color:#D7CCCB"/>
			<stop  offset="0.4174" style="stop-color:#E7E2E0"/>
			<stop  offset="0.5112" style="stop-color:#EFEDEB"/>
			<stop  offset="0.6302" style="stop-color:#CDC9C9"/>
			<stop  offset="0.8785" style="stop-color:#837C7E"/>
			<stop  offset="1" style="stop-color:#615A5D"/>
		</linearGradient>
		<path fill="url(#SVGID_5_)" d="M158.449,146.02h-11.893V97.164l-14.27-23.901v72.757h-12.189V29.14l26.459,45.972V34.975h11.893
			V146.02z"/>
	</g>
</g>
<g>
	<path fill="#FFFFFF" d="M161.129,142.707c-0.143,0.17-0.213,0.43-0.213,0.777c0,0.875,0.619,1.313,1.855,1.313h1.24v-1.883h0.613
		v1.883h6.865v0.639h-6.865v1.277h-0.613v-1.277h-1.299c-0.789,0-1.387-0.189-1.797-0.566c-0.408-0.377-0.613-0.848-0.613-1.412
		c0-0.301,0.047-0.551,0.139-0.75H161.129z"/>
	<path fill="#FFFFFF" d="M171.49,137.199h-1.359v0.029c1.027,0.494,1.541,1.258,1.541,2.291c0,1.68-1.111,2.52-3.336,2.52h-4.324
		v-0.645h4.156c1.012,0,1.746-0.158,2.205-0.477c0.457-0.316,0.686-0.814,0.686-1.496c0-0.662-0.256-1.197-0.766-1.607
		c-0.512-0.41-1.193-0.615-2.045-0.615h-4.236v-0.639h7.479V137.199z"/>
	<path fill="#FFFFFF" d="M164.713,130.93c-0.16,0.213-0.24,0.463-0.24,0.75c0,0.561,0.305,1.031,0.912,1.41
		c0.609,0.379,1.473,0.57,2.592,0.57h3.514v0.625h-7.479v-0.625h1.658v-0.029c-0.57-0.162-1.012-0.418-1.328-0.77
		s-0.475-0.76-0.475-1.223c0-0.264,0.043-0.5,0.131-0.709H164.713z"/>
	<path fill="#FFFFFF" d="M171.49,124.758h-4.354c-1.795,0-2.693,0.615-2.693,1.848c0,0.684,0.264,1.246,0.793,1.686
		c0.527,0.441,1.182,0.66,1.959,0.66h4.295v0.639h-7.479v-0.639h1.359v-0.027c-1.027-0.518-1.541-1.328-1.541-2.43
		c0-0.77,0.27-1.357,0.807-1.764c0.537-0.408,1.307-0.611,2.305-0.611h4.549V124.758z"/>
	<path fill="#FFFFFF" d="M162.129,121.668c0,0.139-0.055,0.262-0.16,0.367c-0.107,0.107-0.244,0.16-0.41,0.16
		c-0.16,0-0.291-0.055-0.391-0.164c-0.1-0.107-0.15-0.229-0.15-0.363c0-0.145,0.049-0.27,0.146-0.379s0.229-0.162,0.395-0.162
		c0.156,0,0.289,0.053,0.402,0.158C162.072,121.393,162.129,121.52,162.129,121.668z M171.49,121.98h-7.479v-0.639h7.479V121.98z"/>
	<path fill="#FFFFFF" d="M171.387,116.252c0.166,0.332,0.25,0.645,0.25,0.938c0,1.051-0.662,1.576-1.986,1.576h-5.025v1.277h-0.613
		v-1.277h-1.941c-0.039-0.102-0.078-0.209-0.117-0.32c-0.033-0.111-0.07-0.217-0.109-0.318h2.168v-1.875h0.613v1.875h4.938
		c0.516,0,0.889-0.078,1.121-0.234c0.23-0.154,0.346-0.416,0.346-0.787c0-0.264-0.09-0.549-0.27-0.854H171.387z"/>
	<path fill="#FFFFFF" d="M171.49,110.148h-1.359v0.027c1.027,0.496,1.541,1.26,1.541,2.291c0,1.682-1.111,2.521-3.336,2.521h-4.324
		v-0.646h4.156c1.012,0,1.746-0.158,2.205-0.475c0.457-0.318,0.686-0.816,0.686-1.498c0-0.662-0.256-1.197-0.766-1.607
		c-0.512-0.408-1.193-0.613-2.045-0.613h-4.236v-0.639h7.479V110.148z"/>
	<path fill="#FFFFFF" d="M164.713,103.877c-0.16,0.213-0.24,0.463-0.24,0.75c0,0.561,0.305,1.031,0.912,1.41
		c0.609,0.379,1.473,0.57,2.592,0.57h3.514v0.625h-7.479v-0.625h1.658v-0.029c-0.57-0.162-1.012-0.418-1.328-0.77
		s-0.475-0.76-0.475-1.223c0-0.264,0.043-0.5,0.131-0.709H164.713z"/>
	<path fill="#FFFFFF" d="M167.781,102.385c1.025,0,1.83-0.225,2.408-0.678c0.58-0.451,0.869-1.07,0.869-1.857
		c0-0.796-0.309-1.574-0.928-2.333h0.717c0.549,0.736,0.824,1.558,0.824,2.465c0,0.917-0.346,1.659-1.037,2.223
		s-1.666,0.846-2.928,0.846c-1.09,0-2.01-0.295-2.756-0.885c-0.748-0.59-1.121-1.358-1.121-2.301c0-0.885,0.326-1.563,0.979-2.035
		s1.543-0.708,2.672-0.708h0.301V102.385z M167.166,97.788c-0.861,0.028-1.529,0.225-2.008,0.59
		c-0.477,0.366-0.715,0.871-0.715,1.514c0,0.666,0.234,1.219,0.705,1.657c0.469,0.438,1.143,0.707,2.018,0.809V97.788z"/>
	<path fill="#FFFFFF" d="M171.49,87.747l-1.373,1.34c1.037,0.931,1.555,2.039,1.555,3.326c0,0.977-0.264,1.738-0.791,2.285
		c-0.529,0.546-1.201,0.819-2.02,0.819c-1.344,0-2.375-0.769-3.096-2.306c-0.91,0.75-1.744,1.125-2.498,1.125
		c-0.676,0-1.25-0.228-1.719-0.684c-0.471-0.456-0.705-1.045-0.705-1.767c0-0.662,0.197-1.183,0.594-1.563
		c0.398-0.379,0.902-0.569,1.516-0.569c0.668,0,1.236,0.192,1.705,0.577c0.471,0.384,0.902,0.988,1.297,1.812
		c0.773-0.694,1.83-1.712,3.168-3.055c-0.904-0.579-1.961-0.886-3.168-0.923v-0.667c1.299,0.033,2.512,0.417,3.637,1.153
		c0.816-0.792,1.455-1.423,1.912-1.895L171.49,87.747z M165.48,92.586c-0.375-0.805-0.75-1.367-1.125-1.684
		s-0.813-0.476-1.314-0.476c-0.482,0-0.867,0.146-1.154,0.438c-0.287,0.292-0.43,0.652-0.43,1.083c0,0.523,0.176,0.94,0.529,1.25
		s0.785,0.465,1.295,0.465C163.906,93.663,164.639,93.304,165.48,92.586z M169.664,89.51c-1.563,1.537-2.703,2.623-3.424,3.257
		c0.633,1.384,1.488,2.076,2.57,2.076c0.656,0,1.195-0.221,1.617-0.663c0.42-0.442,0.631-1.049,0.631-1.823
		C171.059,91.297,170.594,90.349,169.664,89.51z"/>
	<path fill="#FFFFFF" d="M171.49,80.4h-1.359v0.028c0.473,0.231,0.848,0.574,1.125,1.028c0.277,0.454,0.416,0.965,0.416,1.534
		c0,0.875-0.336,1.589-1.008,2.143s-1.598,0.83-2.781,0.83c-1.207,0-2.186-0.302-2.932-0.906c-0.748-0.604-1.121-1.388-1.121-2.351
		c0-1.064,0.459-1.824,1.379-2.277V80.4h-4.789v-0.639h11.07V80.4z M166.941,80.4c-0.697,0-1.287,0.209-1.771,0.628
		s-0.727,0.982-0.727,1.691c0,0.745,0.301,1.361,0.902,1.847c0.602,0.486,1.428,0.729,2.479,0.729c1.031,0,1.828-0.219,2.391-0.656
		s0.844-1.001,0.844-1.691c0-0.81-0.264-1.438-0.791-1.882c-0.529-0.444-1.174-0.667-1.932-0.667H166.941z"/>
	<path fill="#FFFFFF" d="M167.781,77.331c1.025,0,1.83-0.226,2.408-0.677c0.58-0.451,0.869-1.07,0.869-1.857
		c0-0.796-0.309-1.574-0.928-2.333h0.717c0.549,0.736,0.824,1.558,0.824,2.465c0,0.917-0.346,1.658-1.037,2.222
		c-0.691,0.565-1.666,0.847-2.928,0.847c-1.09,0-2.01-0.295-2.756-0.885c-0.748-0.59-1.121-1.357-1.121-2.302
		c0-0.884,0.326-1.563,0.979-2.035s1.543-0.708,2.672-0.708h0.301V77.331z M167.166,72.734c-0.861,0.028-1.529,0.225-2.008,0.59
		c-0.477,0.366-0.715,0.871-0.715,1.514c0,0.667,0.234,1.219,0.705,1.656c0.469,0.438,1.143,0.708,2.018,0.809V72.734z"/>
	<path fill="#FFFFFF" d="M171.162,70.671h-0.811c0.219-0.24,0.391-0.532,0.518-0.875c0.127-0.343,0.189-0.639,0.189-0.889
		c0-1.115-0.479-1.673-1.438-1.673c-0.332,0-0.613,0.123-0.848,0.368c-0.234,0.245-0.475,0.644-0.723,1.194
		c-0.313,0.68-0.635,1.158-0.969,1.434c-0.332,0.276-0.738,0.414-1.215,0.414c-0.609,0-1.1-0.221-1.475-0.664
		c-0.375-0.442-0.563-0.987-0.563-1.635c0-0.611,0.131-1.134,0.395-1.569h0.76c-0.361,0.528-0.541,1.074-0.541,1.639
		c0,0.467,0.127,0.845,0.383,1.132s0.588,0.43,0.998,0.43c0.355,0,0.643-0.09,0.865-0.271c0.221-0.181,0.475-0.579,0.762-1.194
		c0.352-0.741,0.676-1.25,0.975-1.528c0.301-0.278,0.697-0.417,1.195-0.417c0.594,0,1.084,0.211,1.471,0.635
		c0.387,0.423,0.58,1.008,0.58,1.753C171.672,69.642,171.502,70.213,171.162,70.671z"/>
	<path fill="#FFFFFF" d="M162.129,64.471c0,0.139-0.055,0.262-0.16,0.368c-0.107,0.107-0.244,0.16-0.41,0.16
		c-0.16,0-0.291-0.055-0.391-0.164c-0.1-0.108-0.15-0.23-0.15-0.364c0-0.144,0.049-0.27,0.146-0.378s0.229-0.163,0.395-0.163
		c0.156,0,0.289,0.053,0.402,0.16C162.072,64.195,162.129,64.322,162.129,64.471z M171.49,64.783h-7.479v-0.639h7.479V64.783z"/>
	<path fill="#FFFFFF" d="M170.936,56.18c1.406,0,2.436,0.292,3.088,0.875c0.652,0.583,0.979,1.491,0.979,2.722
		c0,0.685-0.189,1.391-0.57,2.118h-0.699c0.438-0.75,0.656-1.461,0.656-2.132c0-1.963-1.09-2.944-3.271-2.944h-0.971v0.028
		c1.018,0.56,1.525,1.414,1.525,2.562c0,0.875-0.332,1.589-1,2.143c-0.666,0.553-1.596,0.83-2.789,0.83s-2.166-0.298-2.922-0.896
		c-0.754-0.597-1.131-1.384-1.131-2.361c0-1.046,0.455-1.805,1.365-2.277v-0.028h-1.184V56.18H170.936z M166.883,56.818
		c-0.662,0-1.234,0.212-1.717,0.635c-0.482,0.424-0.723,0.976-0.723,1.656c0,0.782,0.309,1.412,0.928,1.889
		c0.617,0.477,1.436,0.715,2.453,0.715c1.021,0,1.816-0.219,2.385-0.656c0.566-0.438,0.85-1.015,0.85-1.732
		c0-0.764-0.26-1.373-0.781-1.826s-1.158-0.681-1.912-0.681H166.883z"/>
	<path fill="#FFFFFF" d="M171.49,49.069h-4.354c-1.795,0-2.693,0.616-2.693,1.847c0,0.685,0.264,1.248,0.793,1.687
		c0.527,0.44,1.182,0.66,1.959,0.66h4.295v0.639h-7.479v-0.639h1.359v-0.028c-1.027-0.518-1.541-1.328-1.541-2.43
		c0-0.769,0.27-1.356,0.807-1.764s1.307-0.611,2.305-0.611h4.549V49.069z"/>
</g>
</svg>
